HIERARCHY
ROOT Hips
{
	OFFSET 0.000000 121.760803 0.000000
	CHANNELS 6 Xposition Yposition Zposition Xrotation Yrotation Zrotation 
	JOINT Spine
	{
		OFFSET 0.072000 7.257294 -0.789700
		CHANNELS 3 Xrotation Yrotation Zrotation
		JOINT Spine1
		{
			OFFSET 0.000000 12.508769 -0.658067
			CHANNELS 3 Xrotation Yrotation Zrotation
			JOINT Spine1_split
			{
				OFFSET 0.000000 12.508769 -0.658067
				CHANNELS 3 Xrotation Yrotation Zrotation
				JOINT Spine2
				{
					OFFSET 0.000000 12.508769 -0.658067
					CHANNELS 3 Xrotation Yrotation Zrotation
					JOINT Neck
					{
						OFFSET 0.000000 14.033295 7.520400
						CHANNELS 3 Xrotation Yrotation Zrotation
						JOINT Head
						{
							OFFSET 0.000000 8.198502 5.703100
							CHANNELS 3 Xrotation Yrotation Zrotation
							JOINT HeadTop_End
							{
								OFFSET 0.000000 17.760803 13.332701
								CHANNELS 3 Xrotation Yrotation Zrotation
								End Site
								{
									OFFSET 0.000000 0.000000 0.000000
								}
							}
						}
					}
					JOINT LeftShoulder
					{
						OFFSET 6.292450 5.785301 -0.669000
						CHANNELS 3 Xrotation Yrotation Zrotation
						JOINT LeftShoulder_split
						{
							OFFSET 6.292450 5.785301 -0.669000
							CHANNELS 3 Xrotation Yrotation Zrotation
							JOINT LeftArm
							{
								OFFSET 13.907140 -6.093903 1.965100
								CHANNELS 3 Xrotation Yrotation Zrotation
								JOINT LeftForeArm
								{
									OFFSET 34.140198 0.000000 0.000000
									CHANNELS 3 Xrotation Yrotation Zrotation
									JOINT LeftHand
									{
										OFFSET 40.960209 0.000000 0.000000
										CHANNELS 3 Xrotation Yrotation Zrotation
										JOINT LeftHandThumb1
										{
											OFFSET 10.006996 -7.170425 9.573125
											CHANNELS 3 Xrotation Yrotation Zrotation
											JOINT LeftHandThumb2
											{
												OFFSET 1.835007 -1.059448 1.059443
												CHANNELS 3 Xrotation Yrotation Zrotation
												JOINT LeftHandThumb3
												{
													OFFSET 2.112267 -1.219513 1.219518
													CHANNELS 3 Xrotation Yrotation Zrotation
													JOINT LeftHandThumb4
													{
														OFFSET 4.843811 -2.796570 2.796576
														CHANNELS 3 Xrotation Yrotation Zrotation
														End Site
														{
															OFFSET 0.000000 0.000000 0.000000
														}
													}
												}
											}
										}
										JOINT LeftHandIndex1
										{
											OFFSET 18.389847 -0.922348 4.596882
											CHANNELS 3 Xrotation Yrotation Zrotation
											JOINT LeftHandIndex2
											{
												OFFSET 4.711273 0.000000 0.000000
												CHANNELS 3 Xrotation Yrotation Zrotation
												JOINT LeftHandIndex3
												{
													OFFSET 2.886131 0.000000 0.000000
													CHANNELS 3 Xrotation Yrotation Zrotation
													JOINT LeftHandIndex4
													{
														OFFSET 6.145912 0.000000 0.000000
														CHANNELS 3 Xrotation Yrotation Zrotation
														End Site
														{
															OFFSET 0.000000 0.000000 0.000000
														}
													}
												}
											}
										}
										JOINT LeftHandMiddle1
										{
											OFFSET 18.013008 0.000000 0.000000
											CHANNELS 3 Xrotation Yrotation Zrotation
											JOINT LeftHandMiddle2
											{
												OFFSET 4.946693 0.000000 0.000000
												CHANNELS 3 Xrotation Yrotation Zrotation
												JOINT LeftHandMiddle3
												{
													OFFSET 3.342232 0.000000 0.000000
													CHANNELS 3 Xrotation Yrotation Zrotation
													JOINT LeftHandMiddle4
													{
														OFFSET 4.461754 0.000000 0.000000
														CHANNELS 3 Xrotation Yrotation Zrotation
														End Site
														{
															OFFSET 0.000000 0.000000 0.000000
														}
													}
												}
											}
										}
										JOINT LeftHandRing1
										{
											OFFSET 15.849892 -0.102921 -4.126150
											CHANNELS 3 Xrotation Yrotation Zrotation
											JOINT LeftHandRing2
											{
												OFFSET 3.527054 0.000000 0.000000
												CHANNELS 3 Xrotation Yrotation Zrotation
												JOINT LeftHandRing3
												{
													OFFSET 2.961098 0.000000 0.000000
													CHANNELS 3 Xrotation Yrotation Zrotation
													JOINT LeftHandRing4
													{
														OFFSET 4.927200 0.000000 0.000000
														CHANNELS 3 Xrotation Yrotation Zrotation
														End Site
														{
															OFFSET 0.000000 0.000000 0.000000
														}
													}
												}
											}
										}
										JOINT LeftHandPinky1
										{
											OFFSET 12.791824 -0.832031 -6.799156
											CHANNELS 3 Xrotation Yrotation Zrotation
											JOINT LeftHandPinky2
											{
												OFFSET 3.327133 0.000000 0.000000
												CHANNELS 3 Xrotation Yrotation Zrotation
												JOINT LeftHandPinky3
												{
													OFFSET 3.014900 0.000000 0.000000
													CHANNELS 3 Xrotation Yrotation Zrotation
													JOINT LeftHandPinky4
													{
														OFFSET 5.847786 0.000000 0.000000
														CHANNELS 3 Xrotation Yrotation Zrotation
														End Site
														{
															OFFSET 0.000000 0.000000 0.000000
														}
													}
												}
											}
										}
									}
								}
							}
						}
					}
					JOINT RightShoulder
					{
						OFFSET -6.292450 5.785301 -0.669000
						CHANNELS 3 Xrotation Yrotation Zrotation
						JOINT RightShoulder_split
						{
							OFFSET -6.292450 5.785301 -0.669000
							CHANNELS 3 Xrotation Yrotation Zrotation
							JOINT RightArm
							{
								OFFSET -13.907140 -6.093903 1.965100
								CHANNELS 3 Xrotation Yrotation Zrotation
								JOINT RightForeArm
								{
									OFFSET -34.140198 0.000000 0.000000
									CHANNELS 3 Xrotation Yrotation Zrotation
									JOINT RightHand
									{
										OFFSET -40.960209 0.000000 0.000000
										CHANNELS 3 Xrotation Yrotation Zrotation
										JOINT RightHandThumb1
										{
											OFFSET -10.007050 -7.170456 9.573117
											CHANNELS 3 Xrotation Yrotation Zrotation
											JOINT RightHandThumb2
											{
												OFFSET -1.835007 -1.059448 1.059443
												CHANNELS 3 Xrotation Yrotation Zrotation
												JOINT RightHandThumb3
												{
													OFFSET -2.112267 -1.219513 1.219518
													CHANNELS 3 Xrotation Yrotation Zrotation
													JOINT RightHandThumb4
													{
														OFFSET -4.843834 -2.796585 2.796590
														CHANNELS 3 Xrotation Yrotation Zrotation
														End Site
														{
															OFFSET 0.000000 0.000000 0.000000
														}
													}
												}
											}
										}
										JOINT RightHandIndex1
										{
											OFFSET -18.389870 -0.922424 4.596786
											CHANNELS 3 Xrotation Yrotation Zrotation
											JOINT RightHandIndex2
											{
												OFFSET -4.711273 0.000000 0.000000
												CHANNELS 3 Xrotation Yrotation Zrotation
												JOINT RightHandIndex3
												{
													OFFSET -2.886131 0.000000 0.000000
													CHANNELS 3 Xrotation Yrotation Zrotation
													JOINT RightHandIndex4
													{
														OFFSET -6.145920 0.000000 0.000000
														CHANNELS 3 Xrotation Yrotation Zrotation
														End Site
														{
															OFFSET 0.000000 0.000000 0.000000
														}
													}
												}
											}
										}
										JOINT RightHandMiddle1
										{
											OFFSET -18.013008 0.000000 0.000000
											CHANNELS 3 Xrotation Yrotation Zrotation
											JOINT RightHandMiddle2
											{
												OFFSET -4.946693 0.000000 0.000000
												CHANNELS 3 Xrotation Yrotation Zrotation
												JOINT RightHandMiddle3
												{
													OFFSET -3.342232 0.000000 0.000000
													CHANNELS 3 Xrotation Yrotation Zrotation
													JOINT RightHandMiddle4
													{
														OFFSET -4.461754 0.000000 0.000000
														CHANNELS 3 Xrotation Yrotation Zrotation
														End Site
														{
															OFFSET 0.000000 0.000000 0.000000
														}
													}
												}
											}
										}
										JOINT RightHandRing1
										{
											OFFSET -15.849876 -0.102936 -4.126237
											CHANNELS 3 Xrotation Yrotation Zrotation
											JOINT RightHandRing2
											{
												OFFSET -3.527054 0.000000 0.000000
												CHANNELS 3 Xrotation Yrotation Zrotation
												JOINT RightHandRing3
												{
													OFFSET -2.961098 0.000000 0.000000
													CHANNELS 3 Xrotation Yrotation Zrotation
													JOINT RightHandRing4
													{
														OFFSET -4.927200 0.000000 0.000000
														CHANNELS 3 Xrotation Yrotation Zrotation
														End Site
														{
															OFFSET 0.000000 0.000000 0.000000
														}
													}
												}
											}
										}
										JOINT RightHandPinky1
										{
											OFFSET -12.791786 -0.832077 -6.799222
											CHANNELS 3 Xrotation Yrotation Zrotation
											JOINT RightHandPinky2
											{
												OFFSET -3.327133 0.000000 0.000000
												CHANNELS 3 Xrotation Yrotation Zrotation
												JOINT RightHandPinky3
												{
													OFFSET -3.014900 0.000000 0.000000
													CHANNELS 3 Xrotation Yrotation Zrotation
													JOINT RightHandPinky4
													{
														OFFSET -5.847786 0.000000 0.000000
														CHANNELS 3 Xrotation Yrotation Zrotation
														End Site
														{
															OFFSET 0.000000 0.000000 0.000000
														}
													}
												}
											}
										}
									}
								}
							}
						}
					}
				}
			}
		}
	}
	JOINT LeftUpLeg
	{
		OFFSET 13.026900 -6.336304 -1.092800
		CHANNELS 3 Xrotation Yrotation Zrotation
		JOINT LeftLeg
		{
			OFFSET 0.524474 -46.096886 9.782700
			CHANNELS 3 Xrotation Yrotation Zrotation
			JOINT LeftFoot
			{
				OFFSET -0.524474 -53.427422 -12.948200
				CHANNELS 3 Xrotation Yrotation Zrotation
				JOINT LeftToeBase
				{
					OFFSET 0.192200 -14.009700 16.364100
					CHANNELS 3 Xrotation Yrotation Zrotation
					JOINT LeftToe_End
					{
						OFFSET -1.784700 -0.561700 9.474800
						CHANNELS 3 Xrotation Yrotation Zrotation
						End Site
						{
							OFFSET 0.000000 0.000000 0.000000
						}
					}
				}
			}
		}
	}
	JOINT RightUpLeg
	{
		OFFSET -12.883000 -6.336304 -1.092800
		CHANNELS 3 Xrotation Yrotation Zrotation
		JOINT RightLeg
		{
			OFFSET -0.524587 -46.096825 9.782800
			CHANNELS 3 Xrotation Yrotation Zrotation
			JOINT RightFoot
			{
				OFFSET 0.524587 -53.427383 -12.948300
				CHANNELS 3 Xrotation Yrotation Zrotation
				JOINT RightToeBase
				{
					OFFSET -0.192200 -14.009700 16.364100
					CHANNELS 3 Xrotation Yrotation Zrotation
					JOINT RightToe_End
					{
						OFFSET 1.784700 -0.561700 9.474800
						CHANNELS 3 Xrotation Yrotation Zrotation
						End Site
						{
							OFFSET 0.000000 0.000000 0.000000
						}
					}
				}
			}
		}
	}
}
MOTION
Frames: 4
Frame Time: 0.016667
-1.111088 101.148003 0.434379 3.032230 -58.328484 6.707857 11.191927 0.157701 -2.923563 8.434589 0.027706 -5.592319 0.000000 0.000000 0.000000 8.457056 0.027849 -5.591867 -21.555706 25.063302 12.062585 -0.293966 25.465865 -3.208983 -0.000000 -0.000000 -0.000000 -6.221661 -11.503836 -4.023815 0.000000 0.000000 0.000000 -23.062122 9.568699 -36.639645 0.046176 -43.169442 -0.011133 22.743721 -5.685702 15.979233 -1.060974 -7.956210 8.492272 2.373404 19.986124 -2.038331 0.808209 1.237714 2.631740 0.000000 0.000000 -0.000002 13.340880 -1.006682 10.682278 -0.163438 0.317218 -31.105610 -0.145509 0.315601 -32.256193 -0.000002 0.000000 -0.000001 8.500041 -0.329641 -0.915278 0.231517 0.661174 -29.901837 0.448910 0.208747 -44.357055 -0.000001 -0.000001 -0.000001 6.121108 3.156128 -16.211135 0.046245 0.321026 -30.125461 0.404073 0.818954 -42.140683 0.000000 0.000001 0.000001 -5.637157 7.705246 -13.879847 0.225744 0.277906 -46.588372 0.266621 0.234382 -46.286857 0.000000 0.000002 0.000003 -5.488247 10.658290 2.466539 0.000000 0.000000 0.000000 -41.473790 -26.755637 30.079057 24.955233 111.863069 -23.308237 -8.702495 12.422966 -9.801966 0.262724 10.061707 -10.891935 1.381142 -17.410711 3.018931 3.345886 -13.256897 -8.254629 -0.000001 -0.000000 0.000001 19.443595 11.174429 -13.340181 -0.109197 -0.315768 18.035666 -0.078888 -0.277396 23.256646 -0.000000 0.000003 -0.000000 4.320482 2.436950 -4.811722 0.344829 -0.463976 26.890299 0.460720 0.158669 39.044845 0.000002 0.000001 0.000001 -7.011546 -10.695710 5.718768 0.110907 -0.095443 26.155842 0.448152 -0.485629 33.265122 0.000001 -0.000001 -0.000001 -19.433553 -20.238195 5.987850 0.209885 -0.086857 36.844632 0.256669 -0.056227 36.471680 0.000001 -0.000000 -0.000001 -36.058946 9.362735 25.457645 41.736977 -7.561994 -9.727467 -7.262440 -2.452903 -9.621545 -0.327077 1.238532 0.835611 -0.000000 0.000001 -0.000000 -33.214131 -7.744676 -26.045174 46.184318 2.601236 -7.371237 -16.831470 2.997337 21.175890 -0.318010 -0.997948 -0.837058 0.000000 -0.000000 -0.000000 
-1.096544 101.132393 0.410478 3.056852 -58.302918 6.691246 11.155187 0.174628 -2.880926 8.361921 0.067334 -5.504501 0.000000 0.000000 0.000000 8.384384 0.067499 -5.504039 -20.955323 25.198830 11.976185 -0.203330 25.677157 -3.208821 0.000000 0.000000 -0.000001 -5.897214 -11.434715 -4.094841 0.000000 0.000000 0.000000 -23.105799 9.541879 -36.578183 -0.430840 -43.369089 0.211673 22.768260 -5.683126 16.086398 -0.879759 -7.813334 8.278614 2.373408 19.986124 -2.038332 0.842235 1.254079 2.640824 0.000000 -0.000000 0.000001 13.334322 -1.036158 10.359194 -0.182379 0.317291 -31.248324 -0.144555 0.315395 -32.522697 -0.000001 0.000001 -0.000002 8.499505 -0.328323 -1.009019 0.251443 0.631763 -29.985992 0.430633 0.189305 -44.502528 -0.000001 0.000000 0.000000 6.121505 3.146036 -16.098242 0.080329 0.300935 -30.077185 0.404087 0.798831 -42.144603 -0.000001 -0.000000 -0.000001 -5.734529 7.618909 -13.497798 0.245214 0.256992 -46.515309 0.255648 0.234031 -46.120094 0.000002 0.000000 0.000002 -5.087702 10.716890 2.386529 0.000000 0.000000 0.000000 -41.616715 -26.593143 29.801427 27.048688 111.876197 -25.310907 -8.426425 11.265931 -10.149974 0.161850 10.414141 -10.760822 1.389870 -17.409816 3.034353 3.358056 -13.306390 -8.277534 -0.000001 -0.000002 0.000002 19.555200 10.955337 -14.215779 -0.109606 -0.315375 17.606174 -0.080558 -0.277525 22.816069 0.000000 0.000003 -0.000000 4.375309 2.490918 -5.767849 0.342255 -0.462206 26.411518 0.457891 0.150068 38.570160 -0.000002 -0.000000 0.000000 -7.223209 -10.390277 4.582361 0.110974 -0.091265 25.535026 0.441819 -0.484955 32.636584 -0.000001 -0.000000 0.000001 -19.709044 -19.569332 4.721581 0.207381 -0.083914 36.069290 0.253312 -0.063432 35.679556 -0.000002 0.000000 0.000001 -36.138408 9.350748 25.499442 41.761819 -7.615539 -9.712847 -7.243099 -2.449313 -9.616420 -0.326665 1.211394 0.835586 0.000000 0.000001 -0.000000 -33.229895 -7.728251 -26.006801 46.213289 2.574851 -7.354817 -16.844044 2.982084 21.230779 -0.318040 -0.997922 -0.837091 0.000000 -0.000002 0.000000 
-1.076993 101.102036 0.388662 3.094153 -58.287407 6.690392 11.182934 0.189192 -2.847044 8.418548 0.098054 -5.435016 0.000000 0.000000 0.000000 8.440997 0.098159 -5.434539 -20.687885 25.289861 11.929346 -0.113993 25.894263 -3.222223 0.000000 -0.000000 0.000001 -5.908043 -11.406757 -4.124967 0.000000 0.000000 0.000000 -23.202738 9.567603 -36.508365 -0.784482 -43.550085 0.142496 22.848567 -5.652422 16.178181 -0.879643 -7.742585 8.328714 2.373403 19.986126 -2.038332 0.833693 1.225360 2.626692 0.000000 -0.000000 0.000001 13.268573 -0.549110 10.431564 -0.182239 0.317226 -31.198942 -0.144584 0.315406 -32.508012 -0.000002 0.000000 0.000002 8.506222 0.092378 -0.917203 0.251023 0.632015 -29.949693 0.430423 0.189453 -44.430230 0.000000 0.000000 0.000001 6.117617 3.143155 -16.039678 0.080057 0.300766 -30.030108 0.403813 0.799156 -42.114714 -0.000000 0.000001 0.000001 -5.752460 7.603049 -13.427847 0.244844 0.257182 -46.451563 0.255393 0.233804 -46.027463 0.000002 0.000001 0.000003 -4.944357 10.745120 2.290182 0.000000 0.000000 0.000000 -41.728132 -26.359933 29.303725 31.240179 112.174601 -29.235679 -7.457841 10.204590 -10.911857 0.253656 10.146812 -10.866891 1.389842 -17.409836 3.034313 3.345239 -13.233908 -8.246506 -0.000001 -0.000001 0.000001 19.555675 10.849979 -14.310301 -0.109767 -0.315213 17.427310 -0.081303 -0.277588 22.619775 -0.000000 -0.000002 0.000002 4.395326 2.480596 -5.884550 0.341312 -0.463237 26.238725 0.456669 0.147809 38.361006 -0.000001 0.000002 0.000000 -7.253363 -10.295822 4.470741 0.110976 -0.090330 25.398069 0.440218 -0.484810 32.474681 0.000004 -0.000000 -0.000001 -19.678101 -19.367590 4.682580 0.206943 -0.083439 35.949331 0.252840 -0.063871 35.560762 -0.000003 0.000000 0.000000 -36.232668 9.329350 25.542300 41.816532 -7.649599 -9.700383 -7.237735 -2.447990 -9.616618 -0.326677 1.211403 0.835596 0.000000 0.000002 0.000000 -33.272495 -7.697062 -25.966742 46.268395 2.552924 -7.355309 -16.861953 2.960976 21.301796 -0.317945 -0.997923 -0.837114 0.000000 -0.000001 0.000000 
-1.053902 101.075142 0.369893 3.137172 -58.280741 6.698038 11.207213 0.203599 -2.814628 8.467449 0.128435 -5.368931 0.000000 0.000000 0.000000 8.489926 0.128555 -5.368458 -20.398452 25.378638 11.886853 -0.024566 26.120525 -3.255904 0.000000 0.000000 0.000001 -5.914310 -11.396605 -4.145973 0.000000 0.000000 0.000000 -23.347096 9.645228 -36.446777 -1.115209 -43.763413 0.039107 22.975534 -5.590300 16.230218 -0.833031 -7.696149 8.471584 2.373403 19.986124 -2.038328 0.820920 1.183490 2.606141 -0.000000 -0.000000 0.000000 13.148563 -0.152168 10.582374 -0.181325 0.317246 -31.121972 -0.144840 0.315460 -32.439587 -0.000000 -0.000000 -0.000001 8.510354 0.379058 -0.790059 0.249866 0.632812 -29.887883 0.429172 0.189891 -44.307635 -0.000001 0.000000 -0.000000 6.301389 3.763338 -15.938170 0.079967 0.300726 -29.987481 0.403298 0.799511 -42.063071 0.000000 0.000000 0.000001 -5.757956 7.590707 -13.381689 0.244393 0.257138 -46.375933 0.254852 0.233543 -45.921175 -0.000000 0.000001 0.000003 -4.707634 10.766297 2.133769 0.000000 0.000000 0.000000 -41.787224 -26.098320 28.599071 29.847985 111.261152 -27.947392 -9.059271 9.227785 -12.053760 0.390463 9.767109 -10.996380 1.388975 -17.406068 3.036277 3.326571 -13.128596 -8.201357 0.000000 0.000002 -0.000001 19.537106 10.750119 -14.301144 -0.109897 -0.315084 17.255150 -0.082034 -0.277612 22.425143 0.000001 -0.000000 0.000000 4.410914 2.459029 -5.885781 0.340487 -0.463546 26.084952 0.455442 0.146795 38.156210 0.000000 -0.000000 0.000000 -7.077112 -10.207426 4.534572 0.110987 -0.089762 25.313723 0.439046 -0.484654 32.361440 0.000002 -0.000001 -0.000000 -19.588559 -19.216744 4.827914 0.206829 -0.083273 35.913558 0.252668 -0.063490 35.528527 0.000000 -0.000000 -0.000000 -36.320665 9.308647 25.576726 41.868151 -7.675335 -9.685884 -7.234632 -2.445032 -9.618605 -0.326673 1.211419 0.835587 0.000000 -0.000000 0.000000 -33.317007 -7.657737 -25.929264 46.315362 2.536398 -7.354977 -16.871815 2.936504 21.380758 -0.318064 -0.997805 -0.837091 -0.000000 -0.000000 -0.000000 
